<svg width="106" height="106" viewBox="0 0 106 106" fill="none" xmlns="http://www.w3.org/2000/svg">
<rect width="106" height="106" rx="24.0909" fill="#4E8A6D"/>
<path d="M66.6511 25.4789H66.6524C68.7183 25.4845 70.7627 25.9043 72.6686 26.7141C74.5741 27.5237 76.3036 28.7071 77.7586 30.1964M66.6511 25.4789L77.7596 30.1974C77.7592 30.197 77.7589 30.1967 77.7586 30.1964M66.6511 25.4789H66.5801C62.1544 25.4789 57.8525 27.3974 54.4558 30.8541C51.0073 34.363 48.2084 39.6697 46.9454 45.057M66.6511 25.4789L31.4787 72.0324C31.3406 70.9231 31.5181 69.2824 33.0532 67.7141C33.0537 67.7135 33.0543 67.713 33.0548 67.7124L42.1077 58.277L42.1121 58.2724L42.1122 58.2724C43.0898 57.28 43.9354 56.1612 44.6272 54.9445C45.6094 53.1739 46.1849 51.1994 46.31 49.1693L46.3104 49.1635L46.3104 49.1635C46.4128 47.7795 46.6251 46.4061 46.9454 45.057M77.7586 30.1964C79.2219 31.6768 80.3839 33.4356 81.1785 35.3721C81.9733 37.309 82.3851 39.3859 82.3907 41.4842M77.7586 30.1964L82.3907 41.4842M82.3907 41.4842C82.3907 41.4844 82.3907 41.4845 82.3907 41.4847L81.9089 41.486L82.3907 41.4838C82.3907 41.4839 82.3907 41.4841 82.3907 41.4842ZM82.3907 41.4842C82.4114 46.0055 80.5278 50.4073 77.1118 53.8832C73.6611 57.3945 68.454 60.2521 63.1748 61.5484M82.3907 41.4842L76.7682 53.5455C73.3869 56.9861 68.2621 59.8031 63.0599 61.0805M63.1748 61.5484C63.1752 61.5483 63.1757 61.5482 63.1762 61.5481L63.0599 61.0805M63.1748 61.5484C61.8406 61.8803 60.4819 62.1007 59.1124 62.2073L59.1067 62.2078C57.2345 62.3313 55.4101 62.8636 53.7574 63.7689M63.1748 61.5484L63.0599 61.0805M63.0599 61.0805C61.7511 61.4062 60.4184 61.6224 59.075 61.727L53.7574 63.7689M53.7574 63.7689C53.758 63.7685 53.7586 63.7682 53.7592 63.7678L53.5236 63.3475L53.7552 63.7701C53.7559 63.7697 53.7566 63.7693 53.7574 63.7689ZM53.7574 63.7689C52.4582 64.4974 51.2665 65.4093 50.2178 66.4776L50.2196 66.4757L49.872 66.1421L50.2158 66.4796L41.164 75.9134L41.1601 75.9176L41.1601 75.9175C39.8838 77.2164 38.5497 77.5726 37.4954 77.5726C37.2932 77.5726 37.0913 77.5597 36.8908 77.5338M53.7574 63.7689L31.4787 72.0325C31.6377 73.312 32.3013 74.5504 33.3543 75.622C34.407 76.6932 35.6271 77.3713 36.8908 77.5338M36.8908 77.5338L36.9523 77.0566L36.8909 77.5338C36.8909 77.5338 36.8908 77.5338 36.8908 77.5338ZM46.9454 45.057C46.9455 45.0566 46.9456 45.0561 46.9457 45.0557L47.4145 45.167L46.9454 45.0571C46.9454 45.057 46.9454 45.057 46.9454 45.057ZM36.0613 71.4469L36.0613 71.447C36.0807 71.6034 36.2426 71.9261 36.6263 72.3166C37.0112 72.7082 37.3259 72.8693 37.4722 72.8882C37.4722 72.8882 37.4723 72.8882 37.4723 72.8882L37.4106 73.3661L37.411 73.3661C37.5109 73.3787 37.7749 73.412 38.2248 72.9573L36.0613 71.4469ZM36.0613 71.4469C36.061 71.4448 36.0607 71.4427 36.0604 71.4407C36.0583 71.4251 36.0567 71.4137 36.0684 71.3791C36.0859 71.3274 36.1438 71.2041 36.3355 71.0087L36.3356 71.0088L36.3394 71.0048L43.2348 63.8182L44.799 65.4099L37.8824 72.6184C37.8815 72.6192 37.8807 72.6201 37.8799 72.6209L36.0613 71.4469ZM33.583 29.7276C33.2334 30.26 33.0462 30.8869 33.0461 31.5289C33.047 32.39 33.3837 33.214 33.9797 33.8204C34.5754 34.4265 35.3813 34.7659 36.22 34.7669L33.583 29.7276ZM33.583 29.7276C33.9327 29.195 34.4289 28.7812 35.0078 28.5372M33.583 29.7276L35.0078 28.5372M35.0078 28.5372C35.5867 28.2933 36.2231 28.2296 36.837 28.3538M35.0078 28.5372L36.837 28.3538M36.837 28.3538C37.451 28.4781 38.0161 28.785 38.4605 29.2372M36.837 28.3538L38.4605 29.2372M38.4605 29.2372C38.9049 29.6894 39.2085 30.2667 39.3316 30.8963M38.4605 29.2372L39.3316 30.8963M39.3316 30.8963C39.4547 31.5259 39.3914 32.1785 39.1502 32.7711M39.3316 30.8963L39.1502 32.7711M39.1502 32.7711C38.909 33.3636 38.5011 33.8687 37.9793 34.2235M39.1502 32.7711L37.9793 34.2235M37.9793 34.2235C37.4578 34.578 36.8456 34.7668 36.22 34.7669L37.9793 34.2235ZM44.0117 31.53V31.5294C44.0117 29.9648 43.5558 28.4346 42.7006 27.1323C41.8454 25.8299 40.629 24.8136 39.2042 24.2131C37.7793 23.6125 36.2109 23.4552 34.6977 23.7615C33.1846 24.0678 31.7958 24.8235 30.7066 25.9318C29.6175 27.04 28.8767 28.451 28.5767 29.9858C28.2766 31.5206 28.4305 33.1115 29.0193 34.5577C29.608 36.004 30.6056 37.2415 31.8871 38.1128C33.1688 38.9842 34.6764 39.4498 36.2195 39.4498H36.22C38.2885 39.4475 40.2699 38.6102 41.73 37.1246C43.1898 35.6392 44.0094 33.627 44.0117 31.53ZM50.4679 60.3067C49.6281 60.847 48.8284 61.4492 48.0751 62.1087L46.4279 60.4327C47.0757 59.6678 47.6675 58.8558 48.1984 58.0033C48.8094 58.9056 49.5786 59.6866 50.4679 60.3067ZM73.8405 50.5785C71.0286 53.4396 66.5206 55.9093 62.088 56.9978C59.8863 57.5384 57.8845 57.6948 56.2285 57.5005C54.5676 57.3056 53.2949 56.7637 52.4934 55.9483C51.6357 55.0755 51.1134 53.7018 50.9406 51.9674C50.7685 50.24 50.949 48.2057 51.4448 46.0776C52.4377 41.8164 54.6743 37.2661 57.7278 34.1592C60.5047 31.3336 63.6307 30.1763 66.5438 30.1762C69.5172 30.1779 72.3717 31.3722 74.4878 33.5028C78.3877 37.4722 79.5189 44.8003 73.8405 50.5785Z" fill="#FEFEFE" stroke="#FEFEFE" stroke-width="0.963636"/>
</svg>
